<?xml version="1.0" standalone="no"?>
<!DOCTYPE svg PUBLIC "-//W3C//DTD SVG 20010904//EN"
 "http://www.w3.org/TR/2001/REC-SVG-20010904/DTD/svg10.dtd">
<svg version="1.0" xmlns="http://www.w3.org/2000/svg"
 width="2048.000000pt" height="2048.000000pt" viewBox="0 0 2048.000000 2048.000000"
 preserveAspectRatio="xMidYMid meet">

<g transform="translate(0.000000,2048.000000) scale(0.100000,-0.100000)"
fill="#2d5a27" stroke="none">
<path d="M9975 14838 c-16 -6 -46 -21 -65 -33 -19 -13 -466 -397 -992 -854
-527 -457 -960 -831 -964 -831 -4 0 -3 19 0 43 4 23 7 158 6 300 0 197 -4 267
-14 292 -28 66 -2 64 -620 58 l-559 -6 -31 -28 -31 -28 2 -118 c8 -425 24
-1172 29 -1354 l6 -216 -378 -329 c-209 -180 -469 -407 -579 -502 -329 -286
-393 -367 -354 -445 6 -12 32 -42 59 -67 64 -60 309 -327 338 -368 31 -43 71
-62 130 -62 48 0 71 11 177 83 17 11 164 140 328 286 164 146 305 267 313 269
12 3 14 -40 14 -280 0 -259 15 -2293 24 -3153 1 -198 6 -367 10 -376 6 -14
-47 -16 -556 -22 -310 -4 -738 -7 -951 -7 l-389 0 -29 -29 c-57 -57 -25 -142
59 -157 60 -12 10351 5 10372 16 66 35 65 135 -1 171 -15 8 -326 10 -1064 9
-574 0 -1045 3 -1048 7 -6 10 51 3744 57 3750 2 3 95 -76 207 -174 435 -384
434 -383 483 -383 26 0 59 9 84 23 52 28 283 274 364 387 57 80 108 171 108
196 0 56 -57 108 -2196 2001 -1180 1044 -2159 1906 -2175 1916 -35 23 -132 31
-174 15z m238 -327 c95 -82 267 -234 383 -338 322 -286 3594 -3182 3655 -3234
l53 -45 -112 -110 c-61 -60 -135 -140 -165 -179 -29 -38 -59 -70 -65 -70 -6 0
-96 74 -199 165 -103 91 -377 332 -608 536 -231 203 -803 707 -1270 1120 -468
412 -1072 945 -1343 1184 -272 239 -511 443 -532 454 -49 25 -79 16 -138 -37
-26 -24 -60 -51 -77 -62 -16 -10 -59 -46 -95 -80 -36 -34 -258 -235 -495 -445
-599 -533 -2229 -1986 -2710 -2415 -220 -196 -423 -379 -451 -407 -29 -28 -57
-49 -62 -47 -11 4 -325 336 -330 348 -1 4 48 50 110 102 62 53 559 482 1103
955 545 473 1418 1230 1940 1684 523 453 1013 879 1090 947 77 67 141 122 143
123 2 0 81 -67 175 -149z m278 -1196 c1817 -1596 2565 -2257 2575 -2277 8 -17
4 -518 -18 -1948 -16 -1059 -31 -1931 -34 -1938 -3 -11 -170 -12 -966 -7 -530
4 -966 10 -970 14 -4 3 -14 386 -23 851 -19 952 -14 902 -95 956 -48 32 89 26
-1120 45 -671 10 -761 9 -807 -4 -72 -22 -90 -33 -110 -70 -15 -29 -17 -111
-21 -894 -3 -620 -8 -865 -16 -871 -13 -9 -1858 17 -1868 26 -3 4 -11 617 -17
1362 -6 745 -14 1624 -17 1952 l-7 596 49 45 c70 64 1740 1550 2345 2087 282
250 529 470 549 487 19 18 43 32 53 30 9 -1 243 -200 518 -442z m-2731 186 l0
-119 -82 -98 c-131 -157 -232 -270 -389 -435 -80 -85 -184 -203 -231 -264 -78
-100 -127 -155 -129 -144 0 2 -7 265 -14 584 -10 444 -11 581 -2 587 7 4 200
8 430 8 l417 0 0 -119z m2275 -4696 c362 -6 799 -16 801 -18 4 -6 15 -430 20
-812 3 -247 7 -461 10 -474 6 -43 6 -380 -1 -391 -4 -7 -290 -10 -897 -10
l-890 0 7 23 c4 12 9 393 12 847 2 454 6 831 9 839 3 11 55 12 297 7 160 -3
445 -8 632 -11z"/>
<path d="M9783 12760 c-32 -13 -57 -57 -63 -109 l-5 -46 -80 -6 c-256 -20
-534 -155 -771 -374 -314 -290 -517 -668 -569 -1062 -19 -140 -19 -231 0 -359
26 -171 102 -366 161 -413 75 -59 215 4 322 144 88 117 126 236 138 435 9 169
45 337 95 450 55 124 73 152 192 294 154 182 224 230 387 265 79 17 100 26
123 51 44 49 34 116 -21 144 -29 14 -104 9 -207 -14 -138 -31 -282 -138 -440
-328 -212 -255 -300 -482 -325 -843 -14 -195 -51 -301 -133 -378 l-25 -23 -16
30 c-60 115 -83 373 -51 563 56 338 243 669 514 912 194 174 451 296 650 309
l53 3 3 -32 c6 -69 64 -108 126 -85 39 15 166 130 179 163 24 56 8 110 -59
202 -34 47 -68 91 -76 97 -19 16 -76 21 -102 10z"/>
<path d="M10178 12585 c-87 -49 -85 -233 4 -409 42 -83 149 -188 278 -271 267
-174 406 -338 497 -587 70 -194 74 -207 80 -308 5 -87 3 -103 -26 -193 -34
-105 -33 -136 2 -174 31 -34 95 -32 130 5 34 36 86 186 94 272 11 129 -12 239
-100 478 -52 139 -82 195 -162 302 -102 137 -220 244 -406 368 -122 82 -191
151 -224 225 -41 90 -40 92 35 90 45 -1 91 -11 150 -32 356 -131 667 -474 813
-897 114 -330 113 -648 -2 -917 -20 -47 -21 -48 -43 -33 -35 25 -76 20 -109
-13 -35 -35 -38 -82 -13 -192 29 -130 76 -157 231 -139 126 15 148 24 168 67
15 31 15 39 3 72 -8 22 -28 46 -51 60 -20 13 -37 30 -37 36 0 7 11 32 24 56
34 62 73 194 92 307 22 133 14 397 -16 537 -59 277 -190 554 -363 770 -91 113
-257 269 -355 332 -187 123 -378 190 -562 199 -84 4 -111 2 -132 -11z"/>
<path d="M10115 11942 c-60 -37 -141 -138 -195 -244 -29 -56 -75 -131 -102
-165 -27 -34 -74 -106 -104 -160 -31 -54 -94 -149 -141 -211 -168 -224 -205
-311 -151 -365 37 -37 129 -61 208 -53 99 9 202 34 230 54 52 39 49 112 -6
148 -27 18 -110 23 -154 9 -35 -11 -23 14 59 124 43 58 101 146 127 195 27 48
64 105 82 125 l33 36 -5 -50 c-3 -27 -8 -93 -11 -145 -6 -88 -5 -98 15 -123
35 -44 76 -59 175 -65 49 -2 95 -7 102 -11 11 -6 -103 -186 -224 -355 -20 -27
-56 -90 -80 -139 l-45 -90 -17 29 c-60 99 -159 74 -181 -45 -6 -29 -10 -121
-10 -203 0 -163 8 -195 55 -216 71 -33 123 -2 170 102 18 39 59 103 90 141 33
40 76 109 100 160 25 52 121 205 228 363 102 151 189 286 192 302 9 40 -18 96
-55 115 -28 15 -90 25 -252 41 l-58 5 1 57 c0 31 4 77 9 102 4 25 15 92 24
150 10 58 23 139 31 180 20 99 19 150 -3 176 -37 46 -88 56 -137 26z"/>
<path d="M8623 10254 c-41 -20 -54 -41 -98 -152 -42 -107 -44 -144 -10 -177
28 -29 94 -34 135 -10 37 21 55 18 68 -10 20 -43 173 -194 273 -270 356 -268
930 -365 1415 -240 268 70 511 207 656 369 60 67 135 170 162 223 35 69 12
135 -64 182 -81 51 -142 66 -275 66 -106 0 -129 -3 -200 -28 -44 -16 -123 -53
-176 -82 -217 -122 -441 -184 -624 -172 -308 20 -477 75 -581 191 -30 33 -67
68 -82 78 -67 44 -142 4 -142 -77 0 -37 7 -50 65 -117 75 -88 139 -133 256
-181 117 -48 132 -51 439 -88 84 -10 112 -9 245 10 129 19 169 30 290 77 77
30 178 77 225 104 120 68 237 104 317 96 73 -8 93 -14 93 -30 0 -24 -105 -140
-182 -201 -142 -112 -341 -201 -551 -247 -87 -19 -133 -22 -317 -22 -184 0
-230 3 -316 22 -314 68 -559 201 -724 393 l-61 71 23 16 c36 25 47 44 48 80 0
49 -41 85 -126 112 -98 30 -143 34 -181 14z"/>
</g>
</svg>
